<svg version="1.2" xmlns="http://www.w3.org/2000/svg" viewBox="0 0 759 431" width="759" height="431">
	<title>logo-dark-svg</title>
	<style>
		.s0 { fill: #fff } 
	</style>
	<g id="Layer">
		<g id="Layer">
			<path id="Layer" fill-rule="evenodd" class="s0" d="m45.2 144.1v-130.7c0-7.1 5.8-12.9 13-12.9h49.9c7.1 0 12.9 5.8 12.9 12.9v130.7c0 7.2-5.8 13-12.9 13h-49.9c-7.2 0-13-5.8-13-13zm15-10.4c0 4.6 3.8 8.4 8.4 8.4h29c4.6 0 8.4-3.8 8.4-8.4v-109.8c0-4.7-3.8-8.4-8.4-8.4h-29c-4.6 0-8.4 3.7-8.4 8.4z"/>
			<path id="Layer" fill-rule="evenodd" class="s0" d="m137.7 101.4v-88c0-7.1 5.8-12.9 12.9-12.9h49.9c7.1 0 12.9 5.8 12.9 12.9v88c0 7.1-5.8 12.9-12.9 12.9h-49.9c-7.1 0-12.9-5.8-12.9-12.9zm15-10.4c0 4.6 3.7 8.3 8.3 8.3h29.1c4.6 0 8.3-3.7 8.3-8.3v-67.1c0-4.7-3.7-8.4-8.3-8.4h-29.1c-4.6 0-8.3 3.7-8.3 8.4z"/>
			<path id="Layer" fill-rule="evenodd" class="s0" d="m230.1 64.6v-51.2c0-7.1 5.8-12.9 13-12.9h49.9c7.1 0 12.9 5.8 12.9 12.9v51.2c0 7.1-5.8 12.9-12.9 12.9h-49.9c-7.2 0-13-5.8-13-12.9zm15-10.5c0 4.7 3.8 8.4 8.4 8.4h29c4.6 0 8.4-3.7 8.4-8.4v-30.2c0-4.7-3.8-8.4-8.4-8.4h-29c-4.6 0-8.4 3.7-8.4 8.4 0 0 0 30.2 0 30.2z"/>
			<path id="Layer" fill-rule="evenodd" class="s0" d="m333 317.9v39.5c0 7.1-5.8 12.9-12.9 12.9h-289.1c-7.1 0-12.9-5.8-12.9-12.9v-39.5c0-7.1 5.8-12.9 12.9-12.9h5.9c4.6 0 8.3-3.7 8.3-8.4v-102.7c0-7.1 5.8-12.9 13-12.9h49.9c7.1 0 12.9 5.8 12.9 12.9v102.7c0 4.7 3.7 8.4 8.3 8.4 4.6 0 8.4-3.7 8.4-8.4v-145.4c0-7.1 5.8-12.9 12.9-12.9h49.9c7.1 0 12.9 5.8 12.9 12.9v145.4c0 4.7 3.8 8.4 8.4 8.4 4.6 0 8.3-3.7 8.3-8.4v-182.2c0-7.2 5.8-13 13-13h49.9c7.1 0 12.9 5.8 12.9 13v182.2c0 4.7 3.7 8.4 8.3 8.4h5.9c7.1 0 12.9 5.8 12.9 12.9zm-87.9-21.3c0 4.7 3.8 8.4 8.4 8.4h29c4.6 0 8.4-3.7 8.4-8.4v-171.8c0-4.6-3.8-8.4-8.4-8.4h-29c-4.6 0-8.4 3.8-8.4 8.4zm-92.4 0c0 4.6 3.7 8.3 8.3 8.3h29.1c4.6 0 8.3-3.7 8.3-8.3v-135c0-4.7-3.7-8.4-8.3-8.4h-29.1c-4.6 0-8.3 3.7-8.3 8.4zm-92.5 0c0 4.6 3.8 8.3 8.4 8.3h29c4.6 0 8.4-3.7 8.4-8.3v-92.3c0-4.7-3.8-8.4-8.4-8.4h-29c-4.6 0-8.4 3.7-8.4 8.4zm257.8 31.7c0-4.6-3.7-8.4-8.4-8.4h-268.1c-4.6 0-8.4 3.8-8.4 8.4v18.6c0 4.6 3.7 8.4 8.4 8.4h268.1c4.7 0 8.4-3.8 8.4-8.4z"/>
		</g>
		<g id="Layer">
			<path id="Layer" class="s0" d="m527.1 88.6q-3.1 3.1-7.5 3.1h-41.1q-5.4 0-9.9-2.7-4.6-2.6-7.3-7.1-2.6-4.5-2.6-9.8v-15.8h11.3v15.8q0 3.5 2.5 5.9 2.5 2.4 6 2.4h38.1q1 0 1.6-0.6 0.6-0.6 0.6-1.5v-31.5h11.3v34.5q0 4.2-3 7.3zm-36.2-53.6q1.9 1.9 1.9 4.6 0 2.8-1.9 4.7-2 1.9-4.8 1.9-2.7 0-4.6-1.9-1.9-1.9-1.9-4.7 0-2.7 2-4.6 1.9-1.9 4.5-1.9 2.8 0 4.8 1.9zm17.1 0q1.9 1.9 2 4.6 0 2.8-2 4.7-2 1.9-4.7 1.9-2.7 0-4.6-1.9-1.9-1.9-2-4.7 0-2.7 2-4.6 1.9-1.9 4.6-1.9 2.7 0 4.7 1.9z"/>
			<path id="Layer" class="s0" d="m551.1 89.6q-3.6-2-5.6-5.5-2.1-3.6-2.1-7.7v-49.7h11.3v49.7q0 1.7 1.1 2.9 1.2 1.1 2.9 1.1h4.2v11.3h-4.2q-4.1 0-7.6-2.1z"/>
			<path id="Layer" fill-rule="evenodd" class="s0" d="m610.1 83.8q0 3.2-2.3 5.5-2.2 2.4-5.4 2.4h-41.4v-11.3h9.8q-1.9-2.1-2.9-4.9-0.9-2.8-0.9-6v-2.2q0-5.7 2.9-10.5 3-4.7 8-7.5 5.1-2.7 10.9-2.7h21.3zm-21.3-26.6q-4.4 0-7.6 3.2-3.3 3.2-3.3 7.8v1.7q0.1 4.4 3.3 7.5 3.3 3 7.6 3h8.8q0.5 0 0.9-0.4 0.5-0.4 0.5-1.1v-21.7zm5.2-30q1.9 1.9 1.9 4.6 0 2.7-1.9 4.6-2 2-4.7 2-2.7 0-4.6-2-2-1.9-2-4.6 0-2.7 2-4.6 1.9-1.9 4.6-1.9 2.7 0 4.7 1.9z"/>
			<path id="Layer" fill-rule="evenodd" class="s0" d="m640.1 26q1.9 2 1.9 4.8 0 4.9-5.5 6.6l-10.7 3.8-1.4-4.5 5.6-2q-1.5-1.7-1.5-3.9 0-2.8 2-4.8 1.9-2 4.8-2 2.8 0 4.8 2zm-3 6.4q0.8-0.9 0.8-2.2 0-1.1-0.8-2-0.7-0.8-2-0.8-1.2 0-2 0.8-0.7 0.9-0.7 2 0 1.3 0.7 2.2 0.8 0.9 2 0.9 1.3 0 2-0.9z"/>
			<path id="Layer" class="s0" d="m654.5 82.1q1.7 1.6 1.7 4 0 2.3-1.7 4-1.6 1.6-3.9 1.6h-2.8q-4.4 0-7.9-2.7l-0.1 3.1q-0.6 9-6.3 14.5-5.6 5.5-15 7.2l-4.1-10.6q7.1-1.4 10.8-4.4 3.6-3 3.6-9.4v-42.7h11.2v25.9q0 3.2 2.3 5.5 2.3 2.3 5.5 2.3h2.8q2.3 0 3.9 1.7z"/>
			<path id="Layer" class="s0" d="m680.9 80.4v11.3h-31.4v-11.3z"/>
			<path id="Layer" fill-rule="evenodd" class="s0" d="m727.2 4.1q2 2 2 4.8 0 4.9-5.6 6.7l-10.6 3.7-1.5-4.4 5.7-2.1q-1.5-1.7-1.5-3.9 0-2.8 1.9-4.8 2-2 4.9-2 2.8 0 4.7 2zm-2.9 6.4q0.8-0.9 0.8-2.2 0-1.1-0.8-1.9-0.8-0.9-2-0.9-1.2 0-2 0.9-0.8 0.8-0.8 1.9 0 1.3 0.8 2.2 0.8 0.9 2 0.9 1.2 0 2-0.9z"/>
			<path id="Layer" class="s0" d="m755 82.2q-2.7 4.5-7.3 7-4.5 2.5-9.9 2.5-9 0-14-6.3-2.9 3.2-6.6 4.7-3.6 1.6-8.4 1.6-3.5 0-6.7-1.4-3.2-1.3-5.6-3.7-1.8 2.3-4.6 3.7-2.8 1.4-6 1.4h-6.1q-2.3 0-4-1.6-1.7-1.7-1.7-4 0-2.2 1.7-3.9 1.7-1.8 4-1.8h6.1q1.6 0 2.8-1.1 1.1-1.1 1.1-2.8v-20.7h11.2v16.9q0 3.4 2.4 5.6 2.3 2.2 6.1 2.2 4 0 6.3-2.3 2.4-2.3 2.4-5.9v-16.5h11.2v16.9q0 3.5 2.3 5.6 2.3 2.1 6.1 2.1 4 0 6.3-2.2 2.4-2.3 2.4-5.9v-25.5h11.1v25.5q0.1 5.5-2.6 9.9zm-37.6-47.2q1.9 1.9 1.9 4.6 0 2.8-1.9 4.7-2 1.9-4.7 1.9-2.7 0-4.6-1.9-2-1.9-2-4.7 0-2.7 2-4.6 1.9-1.9 4.6-1.9 2.7 0 4.7 1.9zm8.6-16.1q2 1.9 2 4.6 0 2.7-2 4.6-1.9 2-4.6 2-2.7 0-4.7-2-1.9-1.9-1.9-4.6 0-2.7 1.9-4.6 2-1.9 4.7-1.9 2.7 0 4.6 1.9zm9 16.1q2 1.9 2 4.6 0 2.8-2 4.7-1.9 1.9-4.6 1.9-2.7 0-4.6-1.9-2-1.9-2-4.7 0-2.7 2-4.6 1.9-1.9 4.6-1.9 2.7 0 4.6 1.9z"/>
			<path id="Layer" class="s0" d="m499.7 193.7q1.6 1.6 1.6 4 0 2.3-1.6 4-1.7 1.6-4 1.6h-2.8q-4.3 0-7.9-2.7l-0.1 3.1q-0.6 9-6.3 14.5-5.6 5.5-15 7.2l-4.1-10.6q7.1-1.4 10.8-4.4 3.7-3 3.6-9.3v-42.7h11.2v25.8q0 3.2 2.3 5.5 2.4 2.3 5.5 2.4h2.8q2.3-0.1 4 1.6z"/>
			<path id="Layer" class="s0" d="m491.4 201.6q-1.7-1.7-1.7-4 0-2.4 1.6-4 1.7-1.6 4.1-1.6h16q1.8 0 3-1.2 1.2-1.2 1.2-2.9v-29.5h11.3v29.5q0 4.1-2.1 7.7-2.1 3.5-5.7 5.6-3.6 2.1-7.8 2.1h-15.9q-2.3 0-4-1.7zm16.1 11.3q2 1.9 2 4.6 0 2.8-2 4.7-1.9 1.9-4.6 1.9-2.7 0-4.7-1.9-1.9-1.9-1.9-4.7 0-2.7 1.9-4.6 2-1.9 4.7-1.9 2.7 0 4.6 1.9zm17.3 0q2 1.9 2 4.6 0 2.8-2 4.7-1.9 1.9-4.6 1.9-2.7 0-4.7-1.9-1.9-1.9-1.9-4.7 0-2.7 1.9-4.6 2-1.9 4.7-1.9 2.7 0 4.6 1.9z"/>
			<path id="Layer" fill-rule="evenodd" class="s0" d="m587.1 203.3h-8.1q-0.6 8.9-6.9 14.7-3.5 3.3-7.5 5-4 1.7-9.4 2.3-5.5 0.6-14.3 0.5v-11.1h3.1q8 0 12.7-1 4.7-0.9 7.9-3.9 2.1-1.8 2.8-5.4v-1.1h-9.4q-6.1 0-11.2-3.1-5.1-3-8.1-8.2-3-5.3-3-11.5 0-6.1 3-11.2 3-5.2 8.1-8.1 5.1-3 11.2-3h21.1v33.8h8zm-19.4-33.8h-9.7q-4.7 0-7.9 3.1-3.2 3.2-3.2 8 0 4.8 3.2 8.1 3.3 3.4 8 3.4h9.6c0 0 0-22.6 0-22.6z"/>
			<path id="Layer" fill-rule="evenodd" class="s0" d="m673.6 203.3h-88.4v-11.3h11.4v-53.6h11.2v28.1l23.1-7.1q3.7-1.1 7.5-1.1 6.5 0 12.2 3 5.7 3.1 8.8 8.5 3.4 5.7 3.4 12.6v9.6h10.8zm-22.6-11.9q0.6-0.6 0.6-1.6v-7.4q0-3.9-1.9-7-1.6-2.9-4.6-4.4-3-1.5-6.6-1.5-2.1 0-4.4 0.5l-26.3 8v14.1h41.8q0.8 0 1.4-0.7z"/>
			<path id="Layer" class="s0" d="m712.3 193.7q1.6 1.6 1.6 3.9 0 2.3-1.6 4-1.7 1.7-4 1.7h-4.5q-3.4 0-6.5-1.4-3.2-1.3-5.5-3.6-2.2 2.3-5.2 3.6-3 1.4-6.2 1.4h-7.7q-2.6 0-4.2-1.6-1.7-1.6-1.7-4 0-2.4 1.7-4 1.6-1.7 4.2-1.7h6.4q2.7 0 4.5-1.9 1.9-1.9 1.9-4.5v-18.4h11.2v18.5q0.4 2.7 2.5 4.5 2 1.8 4.6 1.8h4.6q2.3 0.1 3.9 1.7zm-25.5-47.2q1.9 1.9 1.9 4.6 0 2.7-1.9 4.7-2 1.9-4.7 1.9-2.7 0-4.6-1.9-2-2-2-4.7 0-2.7 2-4.6 1.9-1.9 4.6-1.9 2.7 0 4.7 1.9zm17.1 0q1.9 1.9 1.9 4.6 0 2.7-1.9 4.7-2 1.9-4.7 1.9-2.7 0-4.6-1.9-2-2-2-4.7 0-2.7 2-4.6 1.9-1.9 4.6-1.9 2.7 0 4.7 1.9z"/>
			<path id="Layer" class="s0" d="m704 201.7q-1.7-1.7-1.7-4 0-2.4 1.6-4 1.7-1.7 4.1-1.7h4.8q1.7 0 2.9-1.1 1.1-1.2 1.1-2.9v-49.6h11.3v49.6q0 4.1-2.1 7.7-2 3.5-5.5 5.6-3.5 2-7.6 2h-4.9q-2.3 0-4-1.6z"/>
			<path id="Layer" class="s0" d="m743.9 138.2h11.3l-0.1 65.1h-11.2z"/>
			<path id="Layer" class="s0" d="m524.4 281.1h-14.3q-1.6 0-2.9 1.1-1.2 1.2-1.2 2.8v40.1q0 3.8-2.6 6.3-2.6 2.6-6.1 2.6h-23.7q-6.8 0-12.6-3.4-5.8-3.4-9.2-9.2-3.4-5.7-3.4-12.5v-17.1h11.4v17.1q0 3.7 1.9 6.9 1.8 3.2 5 5.1 3.2 1.9 6.9 1.9h17.6q1.3 0 2.4-1 1-1 1-2.5v-34.3q0-4.1 2.1-7.6 2.1-3.5 5.6-5.5 3.5-2.1 7.8-2.1h25.5l-0.2 45h-11.3zm-44.6 61.3q2 1.9 2 4.6 0 2.8-2 4.7-1.9 1.9-4.7 1.9-2.7 0-4.6-1.9-1.9-1.9-1.9-4.7 0-2.6 1.9-4.6 2-1.9 4.6-1.9 2.8 0 4.7 1.9zm17.3 0q2 1.9 2 4.6 0 2.8-2 4.7-1.9 1.9-4.6 1.9-2.7 0-4.7-1.9-1.9-1.9-1.9-4.7 0-2.7 1.9-4.6 2-1.9 4.7-1.9 2.7 0 4.6 1.9z"/>
			<path id="Layer" class="s0" d="m560.4 329.9q-5.9 6.3-16.5 7l-4.1-10.6q8.2-0.8 11.8-3.7 3.6-2.9 3.6-9.9v-42.7h11.1v42.7q0 11-5.9 17.2z"/>
			<path id="Layer" class="s0" d="m587.3 312.9q-3.6-2.1-5.6-5.6-2.1-3.5-2.1-7.6v-49.8h11.3v49.8q0 1.6 1.1 2.8 1.2 1.2 2.9 1.2h4.2v11.2h-4.2q-4.1 0-7.6-2z"/>
			<path id="Layer" fill-rule="evenodd" class="s0" d="m597.4 314.9v-11.2h10.7q-3.8-4.4-3.8-10.5v-2.2q0-5.8 3-10.7 2.9-4.9 8-7.8 5-2.9 10.8-2.9 5.7 0 10.7 2.9 4.9 2.9 7.8 7.8 2.8 4.9 2.8 10.7v9.1q0 1.4-0.3 2.4-0.4 1-0.6 1.2h8.7v11.2zm15.8-55.2q-2-2-2-4.7 0-2.7 2-4.6 1.9-1.9 4.6-1.9 2.7 0 4.7 1.9 1.9 1.9 1.9 4.6 0 2.7-1.9 4.7-2 1.9-4.7 1.9-2.7 0-4.6-1.9zm22.6 43.6q0.4-0.5 0.4-1.1v-11.2q0-4.2-2.9-7.2-3-3-7.2-3-4.5 0-7.7 3.2-3.2 3.3-3.2 7.9v1.7q0 4.3 3.2 7.2 3.2 2.9 7.7 2.9h8.7q0.6 0 1-0.4zm-5.3-43.6q-2-2-2-4.7 0-2.7 2-4.6 1.9-1.9 4.6-1.9 2.7 0 4.7 1.9 1.9 1.9 1.9 4.6 0 2.7-1.9 4.7-2 1.9-4.7 1.9-2.7 0-4.6-1.9z"/>
			<path id="Layer" fill-rule="evenodd" class="s0" d="m667.1 303.7l-8.8-19.8 2.9-8.4q10.7-6.1 20.9-6.1 3.3 0 5.5 0.4 4.5 0.8 8.1 3.6 3.5 2.7 5.5 6.6 2 3.9 2 8.3 0 4-1.7 8.3-1.7 4.3-5.1 7.1h12.1v11.2h-54.7v-11.2zm19.5-4.3q2.8-2.6 3.9-5.5 1.2-2.8 1.4-4.9 0.4-2.9-1.5-5.2-1.9-2.4-4.9-2.9-1.4-0.3-3.1-0.3-4.9 0-11.3 2.5l-0.4 1.8 8.5 18.1q4.6-0.9 7.4-3.6z"/>
			<path id="Layer" class="s0" d="m704 313.3q-1.7-1.6-1.7-4 0-2.4 1.7-4 1.6-1.6 4-1.6h4.8q1.7 0 2.9-1.2 1.1-1.2 1.1-2.8v-49.7h11.3v49.7q0 4.1-2 7.6-2.1 3.5-5.6 5.6-3.5 2-7.6 2h-4.9q-2.3 0-4-1.6z"/>
			<path id="Layer" class="s0" d="m743.9 249.8h11.3l-0.1 65.1h-11.2z"/>
		</g>
		<g id="Layer">
			<path id="Layer" class="s0" d="m4.7 429.1q-3-1.6-4.4-4.5l3.6-2.9q2.6 4.2 7.9 4.2 2.6 0 4-0.9 1.5-1 1.5-2.6 0-1.2-1-2-1-0.8-3.3-1.4l-4.2-1q-7.8-1.9-7.8-7.8 0-2.4 1.3-4.2 1.2-1.9 3.6-2.9 2.3-1 5.5-1 3.6 0 6.4 1.5 2.8 1.4 4.2 3.8l-3.6 3q-1.3-1.7-3-2.6-1.8-1-4.1-0.9-2.4-0.1-3.6 0.8-1.3 0.8-1.3 2.4 0 1.2 1 1.9 1 0.8 3.4 1.4l4.4 1q7.5 1.8 7.5 7.8 0 2.5-1.4 4.4-1.4 2-3.8 3.1-2.6 1-5.8 1-4.1 0-7-1.6z"/>
			<path id="Layer" class="s0" d="m50.3 430.2h-5.3v-10.7h-12.5v10.7h-5.3v-27.6h5.3v12h12.5v-12h5.3z"/>
			<path id="Layer" class="s0" d="m62 429.1q-2.6-1.4-4.1-4-1.4-2.6-1.4-6v-16.5h5.3v16.8q0 2.9 1.6 4.5 1.7 1.7 4.6 1.7 3.1 0 4.7-1.6 1.5-1.7 1.5-4.6v-16.8h5.4v16.5q0 3.4-1.4 6-1.4 2.6-4 4.1-2.6 1.4-6.2 1.4-3.4 0-6-1.5z"/>
			<path id="Layer" fill-rule="evenodd" class="s0" d="m90.9 430.1h-5.3v-27.5h12.5q2.4 0 4.5 1.2 2 1.2 3.2 3.3 1.2 2 1.2 4.4 0 3.1-1.8 5.4-1.7 2.3-4.5 3.1l-0.9 0.1 7.2 10-6.3 0.1-6.7-9.7h-3.1zm9.4-15.7q1.2-1.2 1.2-2.9 0-1.7-1.2-2.9-1.2-1.2-2.9-1.2h-6.5v8.2h6.5q1.7 0 2.9-1.2z"/>
			<path id="Layer" class="s0" d="m117 415.3h11.8v4.8h-11.8v10.1h-5.3v-27.6h17.8v4.8h-12.5z"/>
			<path id="Layer" fill-rule="evenodd" class="s0" d="m139.3 424.8l-2 5.4h-5.7l10.6-27.6h5.6l10.8 27.6h-5.6l-2.1-5.4zm5.8-17l-4.1 12.4h8.3z"/>
			<path id="Layer" class="s0" d="m159.9 407.5v-4.9h22.3v4.9h-8.5v22.7h-5.3v-22.7z"/>
			<path id="Layer" fill-rule="evenodd" class="s0" d="m199.8 430.1h-5.3v-27.5h12.5q2.5 0 4.5 1.2 2 1.2 3.2 3.3 1.2 2 1.2 4.4 0 3.1-1.7 5.4-1.8 2.3-4.6 3.1l-0.9 0.1 7.2 10-6.3 0.1-6.6-9.7h-3.2zm9.4-15.7q1.2-1.2 1.2-2.9 0-1.7-1.2-2.9-1.2-1.2-2.9-1.2h-6.5v8.2h6.5q1.7 0 2.9-1.2z"/>
			<path id="Layer" class="s0" d="m239.5 430.2h-18.9v-27.6h18.5v4.8h-13.3v6.7h12.4v4.7h-12.4v6.6h13.7z"/>
			<path id="Layer" fill-rule="evenodd" class="s0" d="m249.8 424.8l-2.1 5.4h-5.6l10.5-27.6h5.6l10.9 27.6h-5.6l-2.1-5.4zm5.8-17l-4.1 12.4h8.3z"/>
			<path id="Layer" class="s0" d="m291.1 430.2h-18.4v-27.6h5.3v22.7h13.1z"/>
			<path id="Layer" class="s0" d="m322.7 430.2h-18.8v-27.6h18.4v4.8h-13.2v6.7h12.3v4.7h-12.3v6.6h13.6z"/>
			<path id="Layer" class="s0" d="m330.5 429.1q-2.9-1.6-4.3-4.5l3.6-2.9q2.6 4.2 7.9 4.2 2.5 0 4-0.9 1.4-1 1.4-2.6 0-1.2-0.9-2-1-0.8-3.3-1.4l-4.2-1q-7.8-1.9-7.8-7.8 0-2.4 1.2-4.2 1.3-1.9 3.6-2.9 2.4-1 5.5-1 3.7 0 6.5 1.5 2.8 1.4 4.2 3.8l-3.7 3q-1.2-1.7-3-2.6-1.8-1-4-0.9-2.4-0.1-3.6 0.8-1.3 0.8-1.3 2.4 0 1.2 1 1.9 1 0.8 3.4 1.4l4.4 1q7.4 1.8 7.4 7.8 0 2.5-1.3 4.4-1.4 2-3.9 3.1-2.5 1-5.8 1-4 0-7-1.6z"/>
			<path id="Layer" class="s0" d="m350.7 407.5v-4.9h22.3v4.9h-8.5v22.7h-5.3v-22.7z"/>
			<path id="Layer" fill-rule="evenodd" class="s0" d="m381.9 424.8l-2 5.4h-5.7l10.6-27.6h5.5l10.9 27.6h-5.6l-2.1-5.4zm5.8-17l-4.1 12.4h8.3z"/>
			<path id="Layer" class="s0" d="m402.4 407.5v-4.9h22.3v4.9h-8.5v22.7h-5.3v-22.7z"/>
			<path id="Layer" class="s0" d="m447.6 430.2h-18.8v-27.6h18.5v4.8h-13.3v6.7h12.3v4.7h-12.3v6.6h13.6z"/>
			<path id="Layer" fill-rule="evenodd" class="s0" d="m478.8 404.4q3 1.8 4.7 5 1.7 3.1 1.7 7 0 3.8-1.7 7-1.6 3.1-4.6 5-3.1 1.8-6.9 1.8h-10.5v-27.6h10.5q3.9 0 6.8 1.8zm-3.1 19.7q1.9-1.2 2.9-3.2 1.1-2 1.1-4.5 0-2.5-1.1-4.5-1-2.1-2.9-3.2-1.8-1.2-4.3-1.2h-4.6v17.7h4.6q2.5 0 4.3-1.1z"/>
			<path id="Layer" class="s0" d="m509.2 430.2h-18.9v-27.6h18.5v4.8h-13.2v6.7h12.3v4.7h-12.3v6.6h13.6z"/>
			<path id="Layer" class="s0" d="m528.1 430.2h-6.2l-10-27.6h5.7l7.4 21.4 7.4-21.4h5.7z"/>
			<path id="Layer" class="s0" d="m560.6 430.2h-18.9v-27.6h18.5v4.8h-13.2v6.7h12.3v4.7h-12.3v6.6h13.6z"/>
			<path id="Layer" class="s0" d="m584.5 430.2h-18.5v-27.6h5.3v22.7h13.2z"/>
			<path id="Layer" fill-rule="evenodd" class="s0" d="m594.5 428.9q-3.3-1.9-5.1-5.1-1.8-3.3-1.8-7.4 0-4.1 1.8-7.4 1.8-3.3 5.1-5.1 3.3-1.8 7.5-1.8 4.1 0 7.4 1.8 3.2 1.9 5.1 5.1 1.8 3.3 1.8 7.4 0 4.1-1.8 7.4-1.9 3.3-5.1 5.1-3.3 1.8-7.4 1.8-4.2 0-7.5-1.8zm12-4.4q2.1-1.2 3.2-3.3 1.1-2.1 1.1-4.8 0-2.7-1.1-4.8-1.1-2.1-3.2-3.3-2-1.2-4.5-1.2-2.6 0-4.6 1.2-2.1 1.2-3.2 3.3-1.2 2.1-1.2 4.8 0 2.7 1.2 4.8 1.1 2.1 3.2 3.3 2 1.2 4.6 1.2 2.5 0 4.5-1.2z"/>
			<path id="Layer" fill-rule="evenodd" class="s0" d="m638.2 403.8q2.1 1.2 3.2 3.4 1.2 2.1 1.2 4.9 0 2.7-1.2 4.9-1.1 2.1-3.2 3.3-2.1 1.2-4.7 1.2h-6.7v8.7h-5.3v-27.6h12q2.6 0 4.7 1.2zm-2.3 11.7q1.2-1.2 1.2-3.4 0-2-1.2-3.4-1.3-1.3-3.1-1.3h-6v9.3h6q1.9 0 3.1-1.2z"/>
			<path id="Layer" class="s0" d="m677.5 430.2h-5.2v-20.1l-8 20.1h-4.1l-7.7-20.1v20.1h-5.2v-27.6h6.8l8.2 21.5 8.6-21.5h6.7z"/>
			<path id="Layer" class="s0" d="m702.9 430.2h-18.9v-27.6h18.5v4.8h-13.2v6.7h12.3v4.7h-12.3v6.6h13.6z"/>
			<path id="Layer" class="s0" d="m732.5 430.2h-5l-13.9-18.9v18.9h-5.2v-27.6h5l13.8 18.9v-18.9h5.3c0 0 0 27.6 0 27.6z"/>
			<path id="Layer" class="s0" d="m736.5 407.5v-4.9h22.3v4.9h-8.5v22.7h-5.3v-22.7z"/>
		</g>
		<path id="Layer" class="s0" d="m392.8 6.1h4.2v363.2h-4.2z"/>
	</g>
</svg>